<svg id="visual" viewBox="0 0 900 600" width="900" height="600" xmlns="http://www.w3.org/2000/svg" xmlns:xlink="http://www.w3.org/1999/xlink" version="1.1"><rect x="0" y="0" width="900" height="600" fill="#030712"></rect><path d="M0 397L21.5 402.2C43 407.3 86 417.7 128.8 410.5C171.7 403.3 214.3 378.7 257.2 372.5C300 366.3 343 378.7 385.8 389.7C428.7 400.7 471.3 410.3 514.2 418C557 425.7 600 431.3 642.8 424.7C685.7 418 728.3 399 771.2 387.8C814 376.7 857 373.3 878.5 371.7L900 370L900 601L878.5 601C857 601 814 601 771.2 601C728.3 601 685.7 601 642.8 601C600 601 557 601 514.2 601C471.3 601 428.7 601 385.8 601C343 601 300 601 257.2 601C214.3 601 171.7 601 128.8 601C86 601 43 601 21.5 601L0 601Z" fill="#4b5563"></path><path d="M0 397L21.5 402.7C43 408.3 86 419.7 128.8 423.7C171.7 427.7 214.3 424.3 257.2 416.8C300 409.3 343 397.7 385.8 402C428.7 406.3 471.3 426.7 514.2 434.8C557 443 600 439 642.8 432.7C685.7 426.3 728.3 417.7 771.2 421.5C814 425.3 857 441.7 878.5 449.8L900 458L900 601L878.5 601C857 601 814 601 771.2 601C728.3 601 685.7 601 642.8 601C600 601 557 601 514.2 601C471.3 601 428.7 601 385.8 601C343 601 300 601 257.2 601C214.3 601 171.7 601 128.8 601C86 601 43 601 21.5 601L0 601Z" fill="#58616f"></path><path d="M0 451L21.5 447.5C43 444 86 437 128.8 437C171.7 437 214.3 444 257.2 451.2C300 458.3 343 465.7 385.8 471.2C428.7 476.7 471.3 480.3 514.2 473.5C557 466.7 600 449.3 642.8 440.7C685.7 432 728.3 432 771.2 431.7C814 431.3 857 430.7 878.5 430.3L900 430L900 601L878.5 601C857 601 814 601 771.2 601C728.3 601 685.7 601 642.8 601C600 601 557 601 514.2 601C471.3 601 428.7 601 385.8 601C343 601 300 601 257.2 601C214.3 601 171.7 601 128.8 601C86 601 43 601 21.5 601L0 601Z" fill="#656e7b"></path><path d="M0 477L21.5 477C43 477 86 477 128.8 481.7C171.7 486.3 214.3 495.7 257.2 500.3C300 505 343 505 385.8 499.8C428.7 494.7 471.3 484.3 514.2 484.7C557 485 600 496 642.8 500.2C685.7 504.3 728.3 501.7 771.2 498.5C814 495.3 857 491.7 878.5 489.8L900 488L900 601L878.5 601C857 601 814 601 771.2 601C728.3 601 685.7 601 642.8 601C600 601 557 601 514.2 601C471.3 601 428.7 601 385.8 601C343 601 300 601 257.2 601C214.3 601 171.7 601 128.8 601C86 601 43 601 21.5 601L0 601Z" fill="#727b88"></path><path d="M0 499L21.5 500.2C43 501.3 86 503.7 128.8 507.2C171.7 510.7 214.3 515.3 257.2 515.3C300 515.3 343 510.7 385.8 510.7C428.7 510.7 471.3 515.3 514.2 519.2C557 523 600 526 642.8 527.2C685.7 528.3 728.3 527.7 771.2 523.2C814 518.7 857 510.3 878.5 506.2L900 502L900 601L878.5 601C857 601 814 601 771.2 601C728.3 601 685.7 601 642.8 601C600 601 557 601 514.2 601C471.3 601 428.7 601 385.8 601C343 601 300 601 257.2 601C214.3 601 171.7 601 128.8 601C86 601 43 601 21.5 601L0 601Z" fill="#808895"></path><path d="M0 526L21.5 526.5C43 527 86 528 128.8 532.5C171.7 537 214.3 545 257.2 545.8C300 546.7 343 540.3 385.8 534.5C428.7 528.7 471.3 523.3 514.2 524C557 524.7 600 531.3 642.8 531C685.7 530.7 728.3 523.3 771.2 526.3C814 529.3 857 542.7 878.5 549.3L900 556L900 601L878.5 601C857 601 814 601 771.2 601C728.3 601 685.7 601 642.8 601C600 601 557 601 514.2 601C471.3 601 428.7 601 385.8 601C343 601 300 601 257.2 601C214.3 601 171.7 601 128.8 601C86 601 43 601 21.5 601L0 601Z" fill="#8e95a2"></path><path d="M0 554L21.5 554.5C43 555 86 556 128.8 556.3C171.7 556.7 214.3 556.3 257.2 557.5C300 558.7 343 561.3 385.8 562.2C428.7 563 471.3 562 514.2 561.2C557 560.3 600 559.7 642.8 558.8C685.7 558 728.3 557 771.2 555.2C814 553.3 857 550.7 878.5 549.3L900 548L900 601L878.5 601C857 601 814 601 771.2 601C728.3 601 685.7 601 642.8 601C600 601 557 601 514.2 601C471.3 601 428.7 601 385.8 601C343 601 300 601 257.2 601C214.3 601 171.7 601 128.8 601C86 601 43 601 21.5 601L0 601Z" fill="#9ca3af"></path></svg>